Coordinates
version=1
nRows=16
nColumns=30
inDegrees=yes

Units are S.I. units (second, meters, Newtons, ...)
Angles are in degrees.

endheader
time	floatyaw	floatroll	floatpitch	floatx	floaty	floatz	pro_sup_l	deviation_l	flexion_l	cmc_flexion_l	cmc_abduction_l	mp_flexion_l	ip_flexion_l	2mcp_flexion_l	2mcp_abduction_l	2pm_flexion_l	2md_flexion_l	3mcp_flexion_l	3mcp_abduction_l	3pm_flexion_l	3md_flexion_l	4mcp_flexion_l	4mcp_abduction_l	4pm_flexion_l	4md_flexion_l	5mcp_flexion_l	5mcp_abduction_l	5pm_flexion_l	5md_flexion_l
-0.995000	-2.783033	-3.505068	94.703499	-0.007142	-0.270193	0.003028	91.583309	0.842370	-1.642903	26.826253	1.831177	-18.490050	-33.261893	19.218156	6.283055	32.798715	20.359452	8.810665	4.540861	35.400162	21.760343	-2.000177	-3.834778	52.170820	33.215458	-21.609858	-8.847670	62.307583	49.990119
-0.985000	-2.783033	-3.505068	94.703499	-0.007158	-0.270172	0.003038	91.571436	0.838483	-1.613361	26.794841	1.807369	-18.502506	-33.195541	19.190959	6.276668	32.782980	20.368199	8.774654	4.544702	35.387617	21.771545	-2.032785	-3.839359	52.164362	33.214353	-21.679767	-8.838722	62.287133	49.995083
-0.975000	-2.783033	-3.505068	94.703499	-0.007176	-0.270153	0.003048	91.557278	0.832643	-1.582426	26.768982	1.777091	-18.509343	-33.136713	19.162375	6.268803	32.770972	20.369770	8.740354	4.545602	35.372244	21.768189	-2.069224	-3.844197	52.157351	33.206396	-21.749652	-8.825185	62.247358	50.004599
-0.965000	-2.783033	-3.505068	94.703499	-0.007196	-0.270142	0.003059	91.542417	0.824777	-1.556774	26.755617	1.748531	-18.512013	-33.102389	19.144032	6.259529	32.758103	20.360607	8.717834	4.543711	35.351846	21.749128	-2.098960	-3.849443	52.145090	33.192497	-21.803006	-8.807372	62.186605	50.024736
-0.955000	-2.783033	-3.505068	94.703499	-0.007217	-0.270141	0.003074	91.528249	0.815102	-1.541165	26.757200	1.730071	-18.512639	-33.099688	19.143058	6.249675	32.741693	20.342050	8.712942	4.540462	35.325948	21.719362	-2.115259	-3.856185	52.124747	33.176503	-21.831738	-8.786510	62.111495	50.058665
-0.945000	-2.783033	-3.505068	94.703499	-0.007234	-0.270149	0.003089	91.516134	0.804663	-1.536929	26.770440	1.726410	-18.511699	-33.122585	19.158658	6.241070	32.723426	20.319780	8.725214	4.537739	35.297146	21.687644	-2.117090	-3.865456	52.097728	33.163060	-21.838423	-8.764938	62.037378	50.103262
-0.935000	-2.783033	-3.505068	94.703499	-0.007246	-0.270161	0.003102	91.507354	0.795358	-1.541977	26.787580	1.736309	-18.506948	-33.154835	19.182675	6.236072	32.708863	20.301574	8.748682	4.536769	35.270372	21.662918	-2.108733	-3.877195	52.069826	33.155299	-21.833494	-8.745590	61.983951	50.148742
-0.925000	-2.783033	-3.505068	94.703499	-0.007251	-0.270175	0.003106	91.502939	0.789263	-1.552294	26.800095	1.753309	-18.494834	-33.178008	19.204108	6.236617	32.703991	20.294219	8.775246	4.537485	35.250231	21.651109	-2.096908	-3.889847	52.048290	33.153616	-21.828709	-8.730837	61.967253	50.181794
-0.915000	-2.783033	-3.505068	94.703499	-0.007248	-0.270185	0.003098	91.503624	0.787633	-1.564155	26.803161	1.769085	-18.473731	-33.180681	19.215130	6.243342	32.711022	20.300740	8.798859	4.538790	35.238217	21.653312	-2.086443	-3.900890	52.037160	33.155894	-21.830178	-8.721441	61.991858	50.190728
-0.905000	-2.783033	-3.505068	94.703499	-0.007240	-0.270193	0.003083	91.509870	0.790263	-1.575835	26.798277	1.777383	-18.446506	-33.163838	19.215020	6.255225	32.726366	20.319000	8.818033	4.539476	35.231991	21.665856	-2.077070	-3.907999	52.034127	33.158690	-21.834941	-8.716446	62.047738	50.170116
-0.895000	-2.783033	-3.505068	94.703499	-0.007232	-0.270200	0.003066	91.521672	0.795638	-1.587746	26.791870	1.776287	-18.419970	-33.139095	19.209622	6.269853	32.742158	20.342271	8.835102	4.539088	35.227334	21.682129	-2.063926	-3.910151	52.031576	33.158698	-21.833413	-8.714099	62.114027	50.122843
-0.885000	-2.783033	-3.505068	94.703499	-0.007227	-0.270208	0.003056	91.537983	0.801758	-1.600973	26.790219	1.768051	-18.401067	-33.120570	19.207049	6.284150	32.750208	20.361727	8.853063	4.538108	35.221105	21.695482	-2.041782	-3.907991	52.021316	33.154089	-21.816280	-8.713083	62.167834	50.058875
-0.875000	-2.783033	-3.505068	94.703499	-0.007227	-0.270216	0.003055	91.556139	0.807090	-1.615356	26.794132	1.757421	-18.392494	-33.115645	19.212656	6.295319	32.745838	20.370079	8.872570	4.537452	35.212814	21.702040	-2.010037	-3.903305	51.999704	33.145428	-21.781359	-8.713185	62.193533	49.991370
-0.865000	-2.783033	-3.505068	94.703499	-0.007232	-0.270223	0.003062	91.571965	0.811062	-1.628570	26.797577	1.749632	-18.391157	-33.120979	19.226223	6.301687	32.729741	20.364956	8.891091	4.537706	35.203997	21.702251	-1.974904	-3.898012	51.969863	33.135776	-21.736167	-8.715155	62.188153	49.931605
-0.855000	-2.783033	-3.505068	94.703499	-0.007239	-0.270225	0.003070	91.581007	0.813894	-1.636852	26.791706	1.748541	-18.390711	-33.126412	19.242277	6.303111	32.707572	20.350319	8.904260	4.538721	35.196585	21.700376	-1.947288	-3.893318	51.939961	33.129572	-21.694973	-8.720038	62.160911	49.884836
-0.845000	-2.783033	-3.505068	94.703499	-0.007246	-0.270218	0.003072	91.580573	0.816033	-1.636910	26.771605	1.754926	-18.386308	-33.123510	19.252819	6.300772	32.687825	20.334729	8.908138	4.539854	35.191840	21.701998	-1.937660	-3.889483	51.918917	33.130554	-21.672258	-8.728444	62.127550	49.849375
